# xmcd
#
# Track frame offsets:
#	150
#	18410
#	42950
#	64350
#	90290
#	110598
#	129320
#	151235
#	177945
#	200070
#
# Disc length: 2969 seconds
#
# Revision: 0
# Processed by: cddbd v1.5.2PL0 Copyright (c) Steve Scherf et al.
# Submitted via: EasyCDDAExtractor 16.0.9.1
#
DISCID=800b970a
DTITLE=Tuan Vu - Tuan Vu 8 - Neu Em Ve Ben Anh
DYEAR=1900
DGENRE=
TTITLE0=Neu Em Ve Ben Anh
TTITLE1=Buon Ma Chi Em
TTITLE2=Vong Tay Giu Tron An Tinh
TTITLE3=Ky Niem
TTITLE4=Ai Cho Toi Yeu
TTITLE5=Neu Dung Dang Do
TTITLE6=Gio Cuon May Troi
TTITLE7=Vong Gac Dem Suong
TTITLE8=Chuyen Dem Mua 
TTITLE9=Gio Tam Biet
EXTD=
EXTT0=
EXTT1=
EXTT2=
EXTT3=
EXTT4=
EXTT5=
EXTT6=
EXTT7=
EXTT8=
EXTT9=
PLAYORDER=
